<?xml version="1.0" encoding="utf-8"?>
<!-- Generator: Adobe Illustrator 22.1.0, SVG Export Plug-In . SVG Version: 6.00 Build 0)  -->
<svg version="1.1" id="Layer_1" xmlns="http://www.w3.org/2000/svg" xmlns:xlink="http://www.w3.org/1999/xlink" x="0px" y="0px"
	 viewBox="0 0 150 150" style="enable-background:new 0 0 150 150;" xml:space="preserve">
<style type="text/css">
	.st0{fill:#0062FF;}
	.st1{fill:#FFFFFF;}
</style>
<circle class="st0" cx="75" cy="75" r="75"/>
<g>
	<g>
		<g>
			<g>
				<path class="st1" d="M109.4,97l-8.4-5.6l-7.5-5c-1.4-1-3.4-0.6-4.5,0.7l-4.6,6c-1,1.3-2.8,1.7-4.2,0.9
					c-3.1-1.7-6.9-3.4-15.1-11.6s-9.9-11.9-11.6-15.1c-0.8-1.4-0.4-3.2,0.9-4.2l6-4.6c1.4-1.1,1.7-3,0.7-4.5l-4.8-7.3L50.5,38
					c-1-1.5-2.9-1.9-4.5-1l-6.7,4c-1.8,1.1-3.1,2.8-3.7,4.8c-1.8,6.6-2.2,21.3,21.3,44.7s38.1,23.1,44.7,21.3c2-0.6,3.7-1.9,4.8-3.7
					l4-6.7C111.3,100,110.8,98,109.4,97z"/>
				<path class="st1" d="M78.1,48.4c12.3,0,22.3,10,22.3,22.3c0,0.7,0.6,1.3,1.3,1.3s1.3-0.6,1.3-1.3c0-13.7-11.2-24.9-24.9-24.9
					c-0.7,0-1.3,0.6-1.3,1.3C76.8,47.8,77.3,48.4,78.1,48.4z"/>
				<path class="st1" d="M78.1,56.2c8,0,14.4,6.5,14.4,14.4c0,0.7,0.6,1.3,1.3,1.3s1.3-0.6,1.3-1.3c0-9.4-7.6-17-17-17
					c-0.7,0-1.3,0.6-1.3,1.3C76.8,55.7,77.3,56.2,78.1,56.2z"/>
				<path class="st1" d="M78.1,64.1c3.6,0,6.5,2.9,6.6,6.6c0,0.7,0.6,1.3,1.3,1.3s1.3-0.6,1.3-1.3c0-5.1-4.1-9.2-9.2-9.2
					c-0.7,0-1.3,0.6-1.3,1.3S77.3,64.1,78.1,64.1z"/>
			</g>
		</g>
	</g>
</g>
</svg>
