<?xml version="1.0" encoding="iso-8859-1"?>
<!-- Generator: Adobe Illustrator 19.1.0, SVG Export Plug-In . SVG Version: 6.00 Build 0)  -->
<svg xmlns="http://www.w3.org/2000/svg" xmlns:xlink="http://www.w3.org/1999/xlink" version="1.1" id="Capa_1" x="0px" y="0px" viewBox="0 0 400 400" style="enable-background:new 0 0 400 400;" xml:space="preserve" width="512px" height="512px">
<g>
	<g>
		<path d="M200,0C89.818,0,0,89.819,0,200s89.818,200,200,200s200-89.818,200-200S310.181,0,200,0z M200,46.5    c85.045,0,153.469,68.455,153.469,153.5S285.045,353.469,200,353.469S46.5,285.045,46.5,200S114.955,46.5,200,46.5z     M204.156,97.563c-39.132-0.806-78.516,25.436-88.438,64.031c-10.22,33.575-7.386,72.189,10.406,102.625    c15.435,24.285,44.01,38.379,72.594,38.031c19.645,0.725,40.166-1.384,58-9.719c8.193-7.768,2.306-20.071,4.594-29.656    c0.735-6.255-5.228-13.289-11.75-10.281c-22.351,5.77-47.848,11.693-69.375,0.719c-18.83-11.129-23.772-35.071-23.094-55.406    c0.112-19.797,7.05-42.124,25.719-51.812c19.503-9.909,42.661-4.873,61.656,3.594c8.891,1.161,15.429-7.1,16.938-14.969    c3.119-6.713,6.565-13.287,9.344-20.156C250.807,102.642,227.389,97.039,204.156,97.563z" fill="#8593ad"/>
	</g>
	<g>
	</g>
	<g>
	</g>
	<g>
	</g>
	<g>
	</g>
	<g>
	</g>
	<g>
	</g>
	<g>
	</g>
	<g>
	</g>
	<g>
	</g>
	<g>
	</g>
	<g>
	</g>
	<g>
	</g>
	<g>
	</g>
	<g>
	</g>
	<g>
	</g>
</g>
<g>
</g>
<g>
</g>
<g>
</g>
<g>
</g>
<g>
</g>
<g>
</g>
<g>
</g>
<g>
</g>
<g>
</g>
<g>
</g>
<g>
</g>
<g>
</g>
<g>
</g>
<g>
</g>
<g>
</g>
</svg>
