<svg id="Layer_1" data-name="Layer 1" xmlns="http://www.w3.org/2000/svg" viewBox="0 0 150 150"><defs><style>.cls-1{fill:#0062ff;}.cls-2{fill:#fff;}</style></defs><title>envelope</title><circle class="cls-1" cx="75" cy="75" r="75"/><path class="cls-2" d="M113.7,95.3a9.33,9.33,0,0,1-1.2,4.4l-24-25.8L112.2,54a9.07,9.07,0,0,1,1.5,4.8V95.3Zm-38-16.8,33-27.8a10,10,0,0,0-4.5-1.1h-57a9.66,9.66,0,0,0-4.5,1.1Zm9.2-1.6-7.6,6.4a2.27,2.27,0,0,1-1.6.6,2.45,2.45,0,0,1-1.6-.6l-7.6-6.4L42.2,103a9.66,9.66,0,0,0,5,1.4h57a9.4,9.4,0,0,0,5-1.4Zm-45.7-23a9.07,9.07,0,0,0-1.5,4.8V95.2a9.33,9.33,0,0,0,1.2,4.4l24-25.8Z" transform="translate(-1 -2)"/></svg>