<?xml version="1.0" encoding="utf-8"?>
<!-- Generator: Adobe Illustrator 22.1.0, SVG Export Plug-In . SVG Version: 6.00 Build 0)  -->
<svg version="1.1" id="Layer_1" xmlns="http://www.w3.org/2000/svg" xmlns:xlink="http://www.w3.org/1999/xlink" x="0px" y="0px"
	 viewBox="0 0 150 150" style="enable-background:new 0 0 150 150;" xml:space="preserve">
<style type="text/css">
	.st0{fill:#0062FF;}
	.st1{fill:#FFFFFF;}
</style>
<circle class="st0" cx="74.7" cy="75" r="75"/>
<g>
	<g>
		<path class="st1" d="M92,37l-9.9,0c-11.1,0-18.2,7.3-18.2,18.7v8.6H54c-0.9,0-1.5,0.7-1.5,1.6v12.5c0,0.9,0.7,1.5,1.5,1.5h9.9
			v31.5c0,0.9,0.7,1.5,1.5,1.5h12.9c0.9,0,1.5-0.7,1.5-1.5V79.9h11.6c0.9,0,1.5-0.7,1.5-1.5l0-12.5c0-0.4-0.2-0.8-0.5-1.1
			c-0.3-0.3-0.7-0.5-1.1-0.5H79.9V57c0-3.5,0.8-5.3,5.4-5.3l6.6,0c0.9,0,1.5-0.7,1.5-1.5V38.6C93.5,37.7,92.9,37,92,37z"/>
	</g>
	<g>
	</g>
	<g>
	</g>
	<g>
	</g>
	<g>
	</g>
	<g>
	</g>
	<g>
	</g>
	<g>
	</g>
	<g>
	</g>
	<g>
	</g>
	<g>
	</g>
	<g>
	</g>
	<g>
	</g>
	<g>
	</g>
	<g>
	</g>
	<g>
	</g>
</g>
</svg>
