<?xml version="1.0" encoding="utf-8"?>
<!-- Generator: Adobe Illustrator 22.0.1, SVG Export Plug-In . SVG Version: 6.00 Build 0)  -->
<svg version="1.1" id="Capa_1" xmlns="http://www.w3.org/2000/svg" xmlns:xlink="http://www.w3.org/1999/xlink" x="0px" y="0px"
	 viewBox="0 0 96.1 96.1" style="enable-background:new 0 0 96.1 96.1;" xml:space="preserve">
<style type="text/css">
	.st0{fill:none;}
	.st1{fill:#0062FF;}
</style>
<g>
	<rect y="0.8" class="st0" width="96.1" height="94.4"/>
	<g>
		<path class="st1" d="M71.6,1H59.4c-13.7,0-22.6,9.1-22.6,23.1v10.6H24.6c-1.1,0-2,0.9-2,2v15.4c0,1.1,0.9,2,2,2h12.2v39
			c0,1.1,0.9,2,2,2h16c1.1,0,2-0.9,2-2V54.1h14.4c1.1,0,2-0.9,2-2V36.7c0-0.5-0.2-1-0.6-1.4c-0.4-0.4-0.9-0.6-1.4-0.6H56.6v-9
			c0-4.3,1.1-6.5,6.6-6.5h8.2c1.1,0,2-0.9,2-2V3C73.4,1.9,72.7,1,71.6,1z"/>
	</g>
</g>
</svg>
