<?xml version="1.0" encoding="utf-8"?>
<!-- Generator: Adobe Illustrator 22.1.0, SVG Export Plug-In . SVG Version: 6.00 Build 0)  -->
<svg version="1.1" id="Layer_1" xmlns="http://www.w3.org/2000/svg" xmlns:xlink="http://www.w3.org/1999/xlink" x="0px" y="0px"
	 viewBox="0 0 150 150" style="enable-background:new 0 0 150 150;" xml:space="preserve">
<style type="text/css">
	.st0{fill:#0062FF;}
	.st1{fill:#FFFFFF;}
</style>
<path class="st0" d="M107.1,23.3"/>
<circle class="st0" cx="75" cy="75" r="75"/>
<g>
	<g>
		<path class="st1" d="M113.3,67.4c1.4-1.6,1.3-4-0.3-5.4L77.9,31.3c-1.6-1.4-4.1-1.4-5.7,0.1L37,63.7c-1.6,1.4-1.6,3.8-0.2,5.3
			l0.9,0.9c1.5,1.5,3.8,1.7,5.3,0.4l2.6-2.4v34.5c0,2.1,1.7,3.8,3.8,3.8h13.7c2.1,0,3.8-1.7,3.8-3.8v-24h17.5v24.1
			c0,2.1,1.5,3.8,3.6,3.8h14.5c2.1,0,3.8-1.7,3.8-3.8v-34c0,0,0.7,0.6,1.6,1.4c0.9,0.8,2.8,0.2,4.2-1.4L113.3,67.4z"/>
	</g>
</g>
</svg>
