<?xml version="1.0" encoding="utf-8"?>
<!-- Generator: Adobe Illustrator 22.0.1, SVG Export Plug-In . SVG Version: 6.00 Build 0)  -->
<svg version="1.1" id="Layer_1" xmlns="http://www.w3.org/2000/svg" xmlns:xlink="http://www.w3.org/1999/xlink" x="0px" y="0px"
	 viewBox="0 0 96.1 96.1" style="enable-background:new 0 0 96.1 96.1;" xml:space="preserve">
<style type="text/css">
	.st0{fill:#0062FF;}
</style>
<path class="st0" d="M94.6,17.4c-2.1,0.9-4.4,1.7-6.6,2.2c2.5-2.4,4.4-5.4,5.5-8.7l0,0c0.3-0.9-0.7-1.8-1.6-1.3l0,0
	c-3.2,1.9-6.6,3.3-10.1,4.2c-0.2,0.1-0.4,0.1-0.6,0.1c-0.6,0-1.3-0.2-1.8-0.7c-3.8-3.3-8.7-5.2-13.7-5.2c-2.2,0-4.4,0.3-6.6,1
	c-6.7,2.1-11.9,7.6-13.5,14.5c-0.6,2.6-0.8,5.1-0.5,7.6c0,0.3-0.1,0.5-0.2,0.6c-0.1,0.2-0.4,0.3-0.6,0.3c0,0,0,0-0.1,0
	c-14.7-1.4-28-8.5-37.3-19.9l0,0c-0.5-0.6-1.4-0.5-1.8,0.1l0,0C3.2,15.4,2.2,19,2.2,22.6c0,5.6,2.3,10.9,6.2,14.8
	c-1.6-0.4-3.2-1-4.7-1.8l0,0c-0.7-0.4-1.6,0.1-1.6,0.9l0,0C2,44.8,6.9,52.3,14.2,55.6c-0.1,0-0.3,0-0.4,0c-1.2,0-2.3-0.1-3.5-0.3
	l0,0c-0.8-0.2-1.5,0.6-1.2,1.4l0,0c2.4,7.4,8.8,12.9,16.4,14.1c-6.3,4.3-13.7,6.5-21.4,6.5l-2.4,0c-0.7,0-1.4,0.5-1.6,1.2
	c-0.2,0.7,0.2,1.4,0.8,1.8c8.7,5,18.5,7.7,28.6,7.7c8.8,0,17-1.7,24.4-5.2c6.8-3.2,12.8-7.7,17.9-13.4c4.7-5.3,8.4-11.5,10.9-18.3
	c2.4-6.5,3.7-13.4,3.7-20.1v-0.3c0-1.1,0.5-2.1,1.3-2.7c3.2-2.6,6-5.6,8.2-9l0,0C96.5,18.1,95.6,16.9,94.6,17.4L94.6,17.4z"/>
</svg>
