<?xml version="1.0" encoding="utf-8"?>
<!-- Generator: Adobe Illustrator 22.1.0, SVG Export Plug-In . SVG Version: 6.00 Build 0)  -->
<svg version="1.1" id="Capa_1" xmlns="http://www.w3.org/2000/svg" xmlns:xlink="http://www.w3.org/1999/xlink" x="0px" y="0px"
	 viewBox="0 0 512 335.5" style="enable-background:new 0 0 512 335.5;" xml:space="preserve">
<style type="text/css">
	.st0{fill:#F0F0F0;}
	.st1{fill:#D80027;}
	.st2{fill:#0052B4;}
</style>
<rect y="-2.9" class="st0" width="512" height="341.3"/>
<polygon class="st1" points="288,-2.9 224,-2.9 224,135.7 0,135.7 0,199.7 224,199.7 224,338.4 288,338.4 288,199.7 512,199.7 
	512,135.7 288,135.7 "/>
<g>
	<polygon class="st2" points="393.8,227.1 512,292.8 512,227.1 	"/>
	<polygon class="st2" points="311.7,227.1 512,338.4 512,306.9 368.3,227.1 	"/>
	<polygon class="st2" points="458.6,338.4 311.7,256.7 311.7,338.4 	"/>
</g>
<polygon class="st0" points="311.7,227.1 512,338.4 512,306.9 368.3,227.1 "/>
<polygon class="st1" points="311.7,227.1 512,338.4 512,306.9 368.3,227.1 "/>
<g>
	<polygon class="st2" points="90.3,227.1 0,277.3 0,227.1 	"/>
	<polygon class="st2" points="200.3,241.2 200.3,338.4 25.5,338.4 	"/>
</g>
<polygon class="st1" points="143.7,227.1 0,306.9 0,338.4 0,338.4 200.3,227.1 "/>
<g>
	<polygon class="st2" points="118.2,108.4 0,42.7 0,108.4 	"/>
	<polygon class="st2" points="200.3,108.4 0,-2.9 0,28.5 143.7,108.4 	"/>
	<polygon class="st2" points="53.4,-2.9 200.3,78.7 200.3,-2.9 	"/>
</g>
<polygon class="st0" points="200.3,108.4 0,-2.9 0,28.5 143.7,108.4 "/>
<polygon class="st1" points="200.3,108.4 0,-2.9 0,28.5 143.7,108.4 "/>
<g>
	<polygon class="st2" points="421.7,108.4 512,58.2 512,108.4 	"/>
	<polygon class="st2" points="311.7,94.2 311.7,-2.9 486.5,-2.9 	"/>
</g>
<polygon class="st1" points="368.3,108.4 512,28.5 512,-2.9 512,-2.9 311.7,108.4 "/>
</svg>
