<?xml version="1.0" standalone="no"?>
<!DOCTYPE svg PUBLIC "-//W3C//DTD SVG 1.1//EN" "http://www.w3.org/Graphics/SVG/1.1/DTD/svg11.dtd" >
<svg xmlns="http://www.w3.org/2000/svg" xmlns:xlink="http://www.w3.org/1999/xlink" version="1.1">
<metadata>
Created by FontForge 20170910 at Tue Jun 19 09:33:16 2018
 By Jimmy Wärting
Copyright \(c\) 2018
</metadata>
<defs>
<font id="Bokonique-Bold" horiz-adv-x="556" >
  <font-face 
    font-family="Bokonique"
    font-weight="700"
    font-stretch="normal"
    units-per-em="1000"
    panose-1="0 0 0 0 0 0 0 0 0 0"
    ascent="800"
    descent="-200"
    x-height="519"
    cap-height="716"
    bbox="-277 -221 1320 908"
    underline-thickness="50"
    underline-position="-100"
    stemh="80"
    stemv="108"
    unicode-range="U+0002-FB14"
  />
<missing-glyph horiz-adv-x="511" 
d="M87 176l116 174l-116 174v-348zM379 87l-123 185l-123 -185h246zM379 613h-246l123 -184zM424 176v348l-116 -174zM0 700h512v-700h-512v700z" />
    <glyph glyph-name=".notdef" horiz-adv-x="511" 
d="M87 176l116 174l-116 174v-348zM379 87l-123 185l-123 -185h246zM379 613h-246l123 -184zM424 176v348l-116 -174zM0 700h512v-700h-512v700z" />
    <glyph glyph-name="NULL" horiz-adv-x="0" 
 />
    <glyph glyph-name="NULL" horiz-adv-x="0" 
 />
    <glyph glyph-name="CR" unicode="&#xd;" horiz-adv-x="236" 
 />
    <glyph glyph-name="space" unicode=" " horiz-adv-x="239" 
 />
    <glyph glyph-name="exclam" unicode="!" horiz-adv-x="241" 
d="M135 154c45 0 79 -33 79 -80c0 -48 -34 -82 -79 -82c-44 0 -78 34 -78 82c0 47 34 80 78 80zM205 679v-180l-18 -293h-105l-18 293v180h141z" />
    <glyph glyph-name="quotedbl" unicode="&#x22;" horiz-adv-x="384" 
d="M181 687v-267h-121v267h121zM324 687v-267h-122v267h122z" />
    <glyph glyph-name="numbersign" unicode="#" horiz-adv-x="718" 
d="M304 402l-15 -122h124l15 122h-124zM69 522h132l20 165h119l-21 -165h124l20 165h119l-20 -165h127l-9 -120h-133l-16 -122h129l-11 -120h-132l-20 -160h-118l19 160h-123l-21 -160h-118l20 160h-129l11 120h133l15 122h-128z" />
    <glyph glyph-name="dollar" unicode="$" horiz-adv-x="614" 
d="M370 262v-129c41 6 69 28 69 61c0 35 -27 56 -69 68zM261 437v117c-37 -2 -70 -23 -70 -52c0 -33 18 -54 70 -65zM370 549v-146c107 -33 199 -73 199 -204c0 -118 -92 -182 -199 -198v-135h-109v133c-82 10 -166 49 -235 112l60 121c55 -49 117 -86 175 -99v161
c-103 32 -194 71 -194 198c0 116 90 177 194 192v126h109v-125c64 -8 132 -32 194 -72l-57 -123c-47 28 -94 49 -137 59z" />
    <glyph glyph-name="percent" unicode="%" horiz-adv-x="946" 
d="M717 424c118 0 191 -80 191 -213s-73 -213 -191 -213c-119 0 -192 80 -192 213s73 213 192 213zM717 322c-52 0 -80 -41 -80 -111s28 -110 80 -110c51 0 80 40 80 110s-29 111 -80 111zM229 689c119 0 191 -79 191 -212c0 -134 -72 -214 -191 -214s-191 80 -191 214
c0 133 72 212 191 212zM229 586c-51 0 -80 -40 -80 -109c0 -71 29 -111 80 -111s81 40 81 111c0 69 -30 109 -81 109zM293 0h-152l505 687h152z" />
    <glyph glyph-name="ampersand" unicode="&#x26;" horiz-adv-x="666" 
d="M284 116c36 0 72 16 104 43c-55 56 -95 96 -132 138c-42 -25 -71 -53 -71 -92c0 -53 44 -89 99 -89zM259 527c0 -26 11 -54 34 -89c51 27 90 55 90 97c0 31 -23 50 -59 50c-40 0 -65 -25 -65 -58zM552 163l107 -105l-82 -84l-102 100c-57 -49 -125 -79 -194 -79
c-127 0 -224 86 -224 202c0 93 60 145 130 186c-35 52 -52 98 -52 143c0 98 75 166 188 166c109 0 184 -65 184 -156s-70 -141 -146 -182c28 -31 54 -58 101 -103c17 30 34 68 52 116l104 -77c-22 -50 -44 -94 -66 -127z" />
    <glyph glyph-name="quotesingle" unicode="'" horiz-adv-x="241" 
d="M181 687v-267h-121v267h121z" />
    <glyph glyph-name="parenleft" unicode="(" horiz-adv-x="359" 
d="M199 726h144c-78 -121 -126 -271 -126 -420c0 -150 48 -299 126 -421h-144c-79 115 -122 263 -122 421c0 157 43 306 122 420z" />
    <glyph glyph-name="parenright" unicode=")" horiz-adv-x="385" 
d="M119 726h143c79 -114 123 -263 123 -420c0 -158 -44 -306 -123 -421h-143c78 122 126 271 126 421c0 149 -48 299 -126 420z" />
    <glyph glyph-name="asterisk" unicode="*" horiz-adv-x="380" 
d="M307 416l-70 41l1 -80h-96l1 81l-70 -41l-48 86l69 39l-69 38l48 88l70 -41l-1 80h96l-1 -80l70 40l47 -87l-69 -38l69 -39z" />
    <glyph glyph-name="plus" unicode="+" horiz-adv-x="506" 
d="M471 377v-113h-163v-162h-109v162h-164v113h164v162h109v-162h163z" />
    <glyph glyph-name="comma" unicode="," horiz-adv-x="254" 
d="M134 152c40 0 77 -30 77 -79c0 -23 -8 -43 -20 -60l-59 -89h-96l41 95c-13 14 -20 34 -20 54c0 46 32 79 77 79z" />
    <glyph glyph-name="hyphen" unicode="-" horiz-adv-x="390" 
d="M329 358v-113h-268v113h268z" />
    <glyph glyph-name="period" unicode="." horiz-adv-x="249" 
d="M124 154c45 0 79 -33 79 -80c0 -48 -34 -82 -79 -82c-44 0 -78 34 -78 82c0 47 34 80 78 80z" />
    <glyph glyph-name="slash" unicode="/" horiz-adv-x="356" 
d="M419 795l-307 -903h-133l307 903h133z" />
    <glyph glyph-name="zero" unicode="0" horiz-adv-x="686" 
d="M344 690c189 0 294 -123 294 -346s-105 -347 -294 -347c-191 0 -296 124 -296 347s105 346 296 346zM344 564c-96 0 -144 -69 -144 -220c0 -150 48 -221 144 -221c95 0 142 71 142 221c0 151 -47 220 -142 220z" />
    <glyph glyph-name="one" unicode="1" horiz-adv-x="408" 
d="M289 687v-687h-149v550h-127v137h276z" />
    <glyph glyph-name="two" unicode="2" horiz-adv-x="595" 
d="M294 692c134 0 226 -72 226 -183c0 -71 -52 -149 -123 -226l-137 -145h290v-138h-501v107l245 263c43 44 73 92 73 124c0 39 -34 63 -89 63c-51 0 -119 -36 -182 -94l-63 122c82 66 173 107 261 107z" />
    <glyph glyph-name="three" unicode="3" horiz-adv-x="547" 
d="M473 686v-96l-163 -176c115 -12 194 -82 194 -193c0 -133 -100 -226 -256 -226c-84 0 -177 34 -244 85l65 127c55 -51 117 -80 171 -80c74 0 116 36 116 91c0 57 -43 86 -117 86h-109v92l142 153h-233v137h434z" />
    <glyph glyph-name="four" unicode="4" horiz-adv-x="598" 
d="M410 687l-210 -391h139v154h142v-154h94v-137h-94v-159h-142v159h-309v107l229 421h151z" />
    <glyph glyph-name="five" unicode="5" horiz-adv-x="584" 
d="M514 687l2 -138h-295v-99l69 1c153 0 251 -92 251 -217c0 -144 -102 -238 -259 -238c-81 0 -181 35 -256 88l62 127c61 -51 128 -80 182 -80c72 0 115 36 115 96c0 54 -43 87 -114 87c-39 0 -135 -5 -190 -11v384h433z" />
    <glyph glyph-name="six" unicode="6" horiz-adv-x="615" 
d="M331 333c-74 0 -118 -47 -119 -101v-4c1 -46 36 -98 114 -98c67 0 111 38 111 104c0 61 -40 99 -106 99zM347 692c67 0 155 -24 220 -61l-61 -119c-49 31 -106 49 -151 49c-92 0 -144 -61 -157 -153c38 33 90 51 153 51c142 0 228 -88 228 -226
c0 -147 -97 -238 -247 -238c-176 0 -284 124 -284 336c0 218 116 361 299 361z" />
    <glyph glyph-name="seven" unicode="7" horiz-adv-x="572" 
d="M548 687v-107l-265 -580h-160l252 549h-201l-1 -90h-136v228h511z" />
    <glyph glyph-name="eight" unicode="8" horiz-adv-x="625" 
d="M313 299c-79 0 -125 -33 -125 -88c0 -57 45 -90 125 -90s126 33 126 90c0 55 -46 88 -126 88zM313 573c-65 0 -104 -27 -104 -75c0 -47 39 -74 104 -74c66 0 104 27 104 74c0 48 -38 75 -104 75zM313 692c145 0 237 -71 237 -187c0 -58 -25 -105 -71 -136
c65 -34 104 -94 104 -168c0 -128 -104 -206 -270 -206c-165 0 -269 78 -269 204c0 75 41 136 108 170c-48 33 -76 82 -76 139c0 115 92 184 237 184z" />
    <glyph glyph-name="nine" unicode="9" horiz-adv-x="615" 
d="M290 354c74 0 118 48 119 102v3c-1 46 -36 99 -114 99c-67 0 -111 -38 -111 -104c0 -62 40 -100 106 -100zM274 -5c-67 0 -154 25 -220 61l61 120c49 -32 106 -50 151 -50c92 0 144 61 157 154c-38 -34 -90 -52 -153 -52c-142 0 -228 89 -228 227c0 146 98 237 248 237
c176 0 283 -124 283 -335c0 -219 -116 -362 -299 -362z" />
    <glyph glyph-name="colon" unicode=":" horiz-adv-x="243" 
d="M124 154c45 0 79 -33 79 -80c0 -48 -34 -82 -79 -82c-44 0 -78 34 -78 82c0 47 34 80 78 80zM124 428c45 0 79 -33 79 -80s-34 -82 -79 -82c-44 0 -78 35 -78 82s34 80 78 80z" />
    <glyph glyph-name="semicolon" unicode=";" horiz-adv-x="256" 
d="M134 152c40 0 77 -30 77 -79c0 -23 -8 -43 -20 -60l-59 -89h-96l41 95c-13 14 -20 34 -20 54c0 46 32 79 77 79zM134 266c-45 0 -78 35 -78 82s33 80 78 80s78 -33 78 -80s-33 -82 -78 -82z" />
    <glyph glyph-name="less" unicode="&#x3c;" horiz-adv-x="506" 
d="M471 570v-126l-293 -123l293 -123v-126l-436 189v120z" />
    <glyph glyph-name="equal" unicode="=" horiz-adv-x="506" 
d="M471 280v-113h-436v113h436zM471 474v-113h-436v113h436z" />
    <glyph glyph-name="greater" unicode="&#x3e;" horiz-adv-x="506" 
d="M35 76v127l293 122l-293 124v126l436 -189v-120z" />
    <glyph glyph-name="question" unicode="?" horiz-adv-x="453" 
d="M214 154c45 0 79 -33 79 -80c0 -48 -34 -82 -79 -82c-44 0 -78 34 -78 82c0 47 34 80 78 80zM128 458l-123 1c5 143 85 224 212 224c123 0 205 -61 205 -175c0 -84 -42 -125 -83 -165c-32 -31 -63 -61 -63 -132h-121c0 108 39 148 76 186c27 27 52 52 52 96
c0 40 -30 59 -75 59c-48 0 -77 -31 -80 -94z" />
    <glyph glyph-name="at" unicode="@" horiz-adv-x="946" 
d="M456 377c-56 0 -94 -46 -94 -104c0 -60 38 -110 96 -110c61 0 99 49 99 110c0 58 -40 104 -101 104zM479 689c249 0 433 -176 433 -417c0 -152 -81 -251 -197 -251c-58 0 -101 22 -120 69c-40 -39 -92 -58 -148 -58c-123 0 -234 95 -234 237c0 133 89 241 224 241
c54 0 105 -23 126 -53v32h112v-331c0 -21 20 -37 41 -37c45 0 76 64 76 148c0 173 -120 305 -313 305c-182 0 -325 -135 -325 -307c0 -169 135 -292 313 -292c51 0 78 5 143 39l57 -103c-64 -35 -134 -53 -200 -53c-247 0 -433 175 -433 409c0 239 195 422 445 422z" />
    <glyph glyph-name="bracketleft" unicode="[" horiz-adv-x="368" 
d="M342 726v-125h-115v-591h115v-125h-250v841h250z" />
    <glyph glyph-name="backslash" unicode="\" horiz-adv-x="570" 
d="M130 795h133l307 -903h-133z" />
    <glyph glyph-name="bracketright" unicode="]" horiz-adv-x="496" 
d="M154 726h250v-841h-250v125h115v591h-115v125z" />
    <glyph glyph-name="asciicircum" unicode="^" horiz-adv-x="566" 
d="M533 122h-127l-123 271l-124 -271h-127l191 404h119z" />
    <glyph glyph-name="underscore" unicode="_" horiz-adv-x="563" 
d="M563 -84v-105h-563v105h563z" />
    <glyph glyph-name="grave" unicode="`" horiz-adv-x="411" 
d="M211 745l130 -182h-141l-144 116z" />
    <glyph glyph-name="braceleft" unicode="{" horiz-adv-x="348" 
d="M241 556v-151c0 -49 -11 -80 -36 -100c25 -19 36 -51 36 -99v-152c0 -32 22 -45 88 -45v-126h-60c-118 0 -165 38 -165 139v190c0 21 -5 29 -19 29h-49v128h49c14 0 19 8 19 29v192c0 99 47 137 165 137h60v-125c-66 0 -88 -13 -88 -46z" />
    <glyph glyph-name="bar" unicode="|" horiz-adv-x="302" 
d="M212 789v-896h-121v896h121z" />
    <glyph glyph-name="braceright" unicode="}" horiz-adv-x="421" 
d="M373 369h49v-128h-49c-14 0 -20 -8 -20 -29v-190c0 -101 -46 -139 -164 -139h-60v126c66 0 88 13 88 45v152c0 48 11 80 36 99c-25 20 -36 51 -36 100v151c0 33 -22 46 -88 46v125h60c118 0 164 -38 164 -137v-192c0 -21 6 -29 20 -29z" />
    <glyph glyph-name="asciitilde" unicode="~" horiz-adv-x="510" 
d="M176 405c38 0 69 -17 96 -33c17 -10 33 -19 44 -19s16 15 16 46h113c0 -113 -37 -170 -109 -170c-41 0 -72 19 -98 35c-16 9 -31 18 -42 18s-16 -16 -16 -46h-114c0 112 37 169 110 169z" />
    <glyph glyph-name="nbspace" unicode="&#xa0;" horiz-adv-x="221" 
 />
    <glyph glyph-name="sterling" unicode="&#xa3;" horiz-adv-x="554" 
d="M263 276v-147h259v-129h-485v129h77v147h-77v117h77v74c0 144 78 225 217 225c76 0 150 -36 207 -100l-63 -124c-48 57 -94 86 -133 86c-51 0 -79 -30 -79 -90v-71h163v-117h-163z" />
    <glyph glyph-name="yen" unicode="&#xa5;" horiz-adv-x="648" 
d="M656 687l-192 -349h122v-86h-169l-11 -21v-16h180v-86h-180v-129h-150v129h-173v86h173v12l-14 25h-159v86h112l-194 349h156l173 -295l170 295h156z" />
    <glyph glyph-name="section" unicode="&#xa7;" horiz-adv-x="510" 
d="M250 348c-46 0 -72 -15 -72 -37c0 -31 43 -54 97 -54c46 0 70 17 70 40c0 30 -40 51 -95 51zM266 682c64 0 131 -20 201 -61l-51 -105c-59 34 -111 51 -149 51c-43 0 -70 -14 -70 -35c0 -31 48 -45 101 -62c85 -26 181 -56 181 -167c0 -49 -30 -94 -74 -121
c39 -24 55 -54 55 -104c0 -91 -84 -157 -210 -157c-79 0 -162 30 -229 85l50 105c62 -49 124 -74 176 -74c46 0 78 17 78 39c0 30 -48 45 -101 62c-84 27 -179 57 -179 166c0 53 31 95 81 120c-45 27 -61 59 -61 105c0 89 79 153 201 153z" />
    <glyph glyph-name="copyright" unicode="&#xa9;" horiz-adv-x="734" 
d="M368 582c-137 0 -241 -110 -241 -240c0 -131 103 -238 239 -238s241 109 241 240c0 130 -104 238 -239 238zM372 521c50 0 105 -26 149 -68l-59 -70c-30 30 -62 49 -89 49c-52 0 -92 -39 -92 -88c0 -50 40 -90 92 -90c26 0 59 17 89 45l59 -65c-44 -43 -100 -71 -151 -71
c-103 0 -184 78 -184 180c0 101 82 178 186 178zM368 677c187 0 332 -150 332 -333c0 -182 -146 -336 -334 -336c-187 0 -332 152 -332 334s146 335 334 335z" />
    <glyph glyph-name="guillemotleft" unicode="&#xab;" horiz-adv-x="486" 
d="M279 441l-111 -181l111 -180h-135l-121 180l121 181h135zM445 441l-111 -181l111 -180h-135l-120 180l120 181h135z" />
    <glyph glyph-name="registered" unicode="&#xae;" horiz-adv-x="734" 
d="M521 401c0 -48 -20 -86 -56 -108l78 -113c40 43 64 101 64 164c0 130 -104 238 -239 238c-137 0 -241 -110 -241 -240c0 -131 103 -238 239 -238c68 0 129 28 173 72h-104l-58 94h-56v-94h-93v352h146c94 0 147 -46 147 -127zM374 444h-53v-90h53c36 0 57 17 57 46
s-21 44 -57 44zM368 677c187 0 332 -150 332 -333c0 -182 -146 -336 -334 -336c-187 0 -332 152 -332 334s146 335 334 335z" />
    <glyph glyph-name="degree" unicode="&#xb0;" horiz-adv-x="369" 
d="M208 789c71 0 128 -57 128 -126s-57 -127 -128 -127c-69 0 -127 58 -127 127s57 126 127 126zM208 702c-23 0 -42 -18 -42 -39s19 -38 42 -38s42 17 42 38s-19 39 -42 39z" />
    <glyph glyph-name="plusminus" unicode="&#xb1;" horiz-adv-x="506" 
d="M35 19v114h436v-114h-436zM308 438h163v-112h-163v-159h-109v159h-164v112h164v158h109v-158z" />
    <glyph glyph-name="twosuperior" unicode="&#xb2;" horiz-adv-x="405" 
d="M204 690c88 0 149 -46 149 -117c0 -45 -33 -94 -80 -140l-66 -66h163v-102h-328v80l151 155c23 23 40 47 40 62s-15 23 -41 23c-28 0 -71 -22 -114 -59l-50 94c57 43 118 70 176 70z" />
    <glyph glyph-name="threesuperior" unicode="&#xb3;" horiz-adv-x="378" 
d="M324 686v-74l-87 -88c63 -13 106 -55 106 -120c0 -83 -66 -142 -167 -142c-55 0 -119 23 -165 56l53 101c37 -38 74 -58 106 -58c36 0 57 16 57 42c0 25 -22 37 -58 37h-77v71l76 77h-133v98h289z" />
    <glyph glyph-name="mu" unicode="&#xb5;" horiz-adv-x="677" 
d="M446 532h146v-532h-146v53c-38 -37 -93 -56 -156 -57c-19 0 -37 2 -54 6v-181h-146v711h146v-296c0 -61 37 -99 95 -100c71 3 115 60 115 134v262z" />
    <glyph glyph-name="paragraph" unicode="&#xb6;" horiz-adv-x="616" 
d="M524 726v-827h-122v721h-81v-721h-120v430h-9c-154 0 -193 119 -193 195c0 103 64 202 228 202h297z" />
    <glyph glyph-name="onesuperior" unicode="&#xb9;" horiz-adv-x="289" 
d="M210 265h-117v319h-77v103h194v-422z" />
    <glyph glyph-name="guillemotright" unicode="&#xbb;" horiz-adv-x="498" 
d="M76 81l111 180l-111 181h135l121 -181l-121 -180h-135zM243 81l111 180l-111 181h135l120 -181l-120 -180h-135z" />
    <glyph glyph-name="onequarter" unicode="&#xbc;" horiz-adv-x="798" 
d="M93 584h-77v103h194v-422h-117v319zM534 687h151l-505 -687h-152zM776 187v-97h-56v-90h-113v90h-189v80l141 252h119l-128 -235h57v94h113v-94h56z" />
    <glyph glyph-name="onehalf" unicode="&#xbd;" horiz-adv-x="820" 
d="M93 584h-77v103h194v-422h-117v319zM534 687h151l-505 -687h-152zM620 425c87 0 148 -46 148 -117c0 -46 -33 -95 -80 -140l-65 -66h162v-102h-328v81l151 154c24 23 40 48 40 62c0 15 -15 24 -40 24c-29 0 -72 -23 -114 -60l-51 94c57 44 118 70 177 70z" />
    <glyph glyph-name="threequarters" unicode="&#xbe;" horiz-adv-x="860" 
d="M596 687h152l-505 -687h-152zM839 187v-97h-56v-90h-113v90h-189v80l141 252h119l-128 -235h57v94h113v-94h56zM169 440h-77v71l76 77h-133v98h289v-74l-87 -88c63 -13 106 -55 106 -120c0 -83 -66 -142 -167 -142c-55 0 -119 23 -165 56l53 101c37 -38 74 -58 106 -58
c36 0 57 16 57 42c0 25 -22 37 -58 37z" />
    <glyph glyph-name="multiply" unicode="&#xd7;" horiz-adv-x="527" 
d="M456 434l-113 -113l113 -115l-76 -81l-115 116l-116 -116l-77 81l113 115l-113 113l77 81l116 -116l115 116z" />
    <glyph glyph-name="divide" unicode="&#xf7;" horiz-adv-x="506" 
d="M247 241c44 0 77 -34 77 -79s-33 -79 -77 -79s-75 34 -75 79s31 79 75 79zM247 569c44 0 77 -34 77 -78c0 -46 -33 -79 -77 -79s-75 33 -75 79c0 44 31 78 75 78zM471 377v-113h-436v113h436z" />
    <glyph glyph-name="tilde" unicode="&#x2dc;" horiz-adv-x="366" 
d="M119 741c35 0 59 -18 81 -34c11 -9 22 -17 29 -17c10 0 15 16 15 45h108c0 -107 -36 -161 -104 -161c-39 0 -63 19 -83 35c-11 9 -21 16 -28 16c-10 0 -15 -16 -15 -45h-108c0 107 37 161 105 161z" />
    <glyph glyph-name="quoteleft" unicode="&#x2018;" horiz-adv-x="254" 
d="M115 693h96l-42 -95c14 -14 21 -34 21 -54c0 -47 -33 -79 -78 -79c-40 0 -76 29 -76 79c0 23 8 42 20 60z" />
    <glyph glyph-name="quoteright" unicode="&#x2019;" horiz-adv-x="255" 
d="M134 687c40 0 77 -28 77 -79c0 -23 -8 -41 -20 -59l-59 -88h-96l42 94c-14 14 -21 33 -21 53c0 47 32 79 77 79z" />
    <glyph glyph-name="quotedblleft" unicode="&#x201c;" horiz-adv-x="325" 
d="M194 605l58 88h96l-41 -95c13 -14 21 -34 21 -54c0 -45 -33 -79 -78 -79c-29 0 -55 16 -68 43c-13 -26 -38 -43 -70 -43c-40 0 -76 30 -76 79c0 23 8 43 20 61l59 88h96l-42 -95c5 -5 9 -11 12 -17c3 8 8 16 13 24z" />
    <glyph glyph-name="quotedblright" unicode="&#x201d;" horiz-adv-x="362" 
d="M272 688c40 0 76 -29 76 -79c0 -23 -8 -42 -20 -60l-58 -88h-96l41 94c-5 6 -9 11 -12 17c-3 -8 -7 -16 -12 -23l-59 -88h-96l41 94c-13 15 -20 34 -20 54c0 46 32 79 77 79c29 0 56 -15 69 -42c12 26 37 42 69 42z" />
    <glyph glyph-name="quotedblbase" unicode="&#x201e;" horiz-adv-x="392" 
d="M272 152c40 0 76 -30 76 -79c0 -23 -8 -43 -20 -60l-58 -89h-96l41 95c-5 5 -9 11 -12 17c-3 -8 -7 -16 -12 -23l-59 -89h-96l41 95c-13 14 -20 34 -20 54c0 46 32 79 77 79c29 0 56 -15 69 -42c12 25 37 42 69 42z" />
    <glyph glyph-name="ellipsis" unicode="&#x2026;" horiz-adv-x="609" 
d="M122 149c42 0 75 -32 75 -78s-33 -79 -75 -79c-43 0 -76 33 -76 79s33 78 76 78zM305 149c42 0 75 -32 75 -78s-33 -79 -75 -79c-43 0 -76 33 -76 79s33 78 76 78zM488 149c43 0 75 -32 75 -78s-32 -79 -75 -79s-76 33 -76 79s33 78 76 78z" />
    <glyph glyph-name="perthousand" unicode="&#x2030;" horiz-adv-x="1359" 
d="M717 424c118 0 191 -80 191 -213s-73 -213 -191 -213c-119 0 -192 80 -192 213s73 213 192 213zM717 322c-52 0 -80 -41 -80 -111s28 -110 80 -110c51 0 80 40 80 110s-29 111 -80 111zM1129 424c119 0 191 -80 191 -213s-72 -213 -191 -213s-191 80 -191 213
s72 213 191 213zM1129 322c-51 0 -80 -41 -80 -111s29 -110 80 -110s81 40 81 110s-30 111 -81 111zM229 689c119 0 191 -79 191 -212c0 -134 -72 -214 -191 -214s-191 80 -191 214c0 133 72 212 191 212zM229 586c-51 0 -80 -40 -80 -109c0 -71 29 -111 80 -111
s81 40 81 111c0 69 -30 109 -81 109zM293 0h-152l505 687h152z" />
    <glyph glyph-name="guilsinglleft" unicode="&#x2039;" horiz-adv-x="320" 
d="M279 441l-111 -181l111 -180h-135l-121 180l121 181h135z" />
    <glyph glyph-name="guilsinglright" unicode="&#x203a;" horiz-adv-x="332" 
d="M76 80l111 181l-111 181h135l121 -181l-121 -181h-135z" />
    <glyph glyph-name="fraction" unicode="&#x2044;" horiz-adv-x="203" 
d="M-125 0h-152l506 687h151z" />
    <glyph glyph-name="Euro" unicode="&#x20ac;" horiz-adv-x="796" 
d="M677 226l91 -103c-78 -78 -183 -128 -283 -128c-157 0 -287 93 -339 227h-109v100h86c-1 10 -1 19 -1 29c0 17 -2 14 1 30h-86v100h110c53 132 184 222 343 222c98 0 202 -46 276 -120l-89 -114c-55 59 -124 95 -186 95c-70 0 -132 -33 -172 -83h220v-100h-262
c-1 -10 -2 -19 -2 -29s1 -20 2 -30h262v-100h-220c40 -50 102 -83 172 -83c61 0 129 34 186 87z" />
    <glyph glyph-name="trademark" unicode="&#x2122;" horiz-adv-x="863" 
d="M340 687v-108h-114v-320h-118v320h-113v108h345zM811 687v-428h-111v206l-80 -166h-77l-78 166v-206h-112v428h123l106 -220l106 220h123z" />
    <glyph glyph-name="uni0531" unicode="&#x531;" horiz-adv-x="761" 
d="M731 62l-93 -100l-76 80c-50 -42 -120 -54 -190 -54c-187 0 -302 111 -302 293v406h149v-406c0 -96 62 -155 154 -155c31 0 65 4 87 13l-64 56l96 92l31 -39c1 8 1 24 1 33v406h149v-406c0 -49 -7 -98 -28 -138z" />
    <glyph glyph-name="uni0532" unicode="&#x532;" horiz-adv-x="722" 
d="M219 407v-118h473v-137h-473v-152h-149v407c0 181 114 292 301 292s302 -118 302 -312h-149c0 109 -60 174 -154 174c-93 0 -151 -57 -151 -154z" />
    <glyph glyph-name="uni0533" unicode="&#x533;" horiz-adv-x="761" 
d="M298 291h186v116c0 95 -60 154 -154 154c-85 0 -150 -46 -150 -133c0 -69 42 -137 118 -137zM633 407v-116h98v-138h-98v-153h-149v153h-195c-189 0 -259 143 -259 271c0 100 50 275 301 275c187 0 302 -111 302 -292z" />
    <glyph glyph-name="uni0534" unicode="&#x534;" horiz-adv-x="751" 
d="M623 291h98v-138h-98v-153h-149v408c0 97 -58 154 -151 154c-95 0 -154 -65 -154 -175h-149c0 205 111 312 301 312c187 0 302 -111 302 -292v-116z" />
    <glyph glyph-name="uni0535" unicode="&#x535;" horiz-adv-x="732" 
d="M692 370h-473v-89c0 -98 58 -155 151 -155c94 0 154 66 154 175h147c0 -194 -113 -313 -300 -313s-301 111 -301 293v406h149v-180h473v-137z" />
    <glyph glyph-name="uni0536" unicode="&#x536;" horiz-adv-x="806" 
d="M695 137h71v-138h-726v208h149v-70h228c108 9 197 104 197 216c0 117 -94 208 -210 208c-108 0 -200 -88 -214 -206l-148 38c29 178 177 306 361 306c205 0 363 -150 363 -346c0 -79 -27 -156 -71 -216z" />
    <glyph glyph-name="uni0537" unicode="&#x537;" horiz-adv-x="664" 
d="M644 370h-405v-231h341v-139h-490v687h149v-180h405v-137z" />
    <glyph glyph-name="uni0538" unicode="&#x538;" horiz-adv-x="718" 
d="M673 387h-149c0 109 -60 174 -154 174c-93 0 -151 -57 -151 -154v-269h454v-138h-603v407c0 181 114 292 301 292s302 -118 302 -312z" />
    <glyph glyph-name="uni0539" unicode="&#x539;" horiz-adv-x="866" 
d="M598 213h-163v-78h13c68 0 114 29 150 78zM796 353v-2h40v-138h-67c-55 -131 -178 -213 -321 -213h-158v351h354v4c0 114 -93 206 -210 206s-213 -91 -213 -208v-353h-151v353c0 203 165 346 363 346c200 0 363 -145 363 -346z" />
    <glyph glyph-name="uni053A" unicode="&#x53a;" horiz-adv-x="761" 
d="M484 275v95h-186c-69 0 -119 -32 -119 -104c0 -90 61 -140 151 -140c94 0 154 53 154 149zM289 507h195v180h149v-180h98v-137h-98v-95c0 -182 -115 -287 -302 -287c-251 0 -301 169 -301 270c0 111 70 249 259 249z" />
    <glyph glyph-name="uni053B" unicode="&#x53b;" horiz-adv-x="733" 
d="M391 552c189 0 311 -104 302 -293l-2 -41h-147v42c0 96 -60 154 -154 154c-93 0 -151 -57 -151 -154v-260h-149v687h149v-166c43 20 95 31 152 31z" />
    <glyph glyph-name="uni053C" unicode="&#x53c;" horiz-adv-x="548" 
d="M239 687v-549h284v-138h-433v687h149z" />
    <glyph glyph-name="uni053D" unicode="&#x53d;" horiz-adv-x="944" 
d="M750 507h149v-226c0 -182 -113 -293 -301 -293c-187 0 -302 111 -302 293v87h-57v-368h-149v687h149v-180h206v-226c0 -97 60 -155 154 -155c93 0 151 57 151 155v226z" />
    <glyph glyph-name="uni053E" unicode="&#x53e;" horiz-adv-x="806" 
d="M404 126c116 0 210 93 210 210c0 118 -94 213 -210 213c-117 0 -213 -95 -213 -213c0 -117 97 -210 213 -210zM114 554h-55v133h689v-133h-56c48 -59 74 -135 74 -218c0 -196 -158 -348 -363 -348c-204 0 -363 152 -363 348c0 83 27 159 74 218z" />
    <glyph glyph-name="uni053F" unicode="&#x53f;" horiz-adv-x="723" 
d="M504 507h149v-507h-149v164c-43 -19 -95 -31 -152 -31c-179 0 -302 105 -302 293v261h149v-261c0 -97 60 -155 154 -155c93 0 151 58 151 155v81z" />
    <glyph glyph-name="uni0540" unicode="&#x540;" horiz-adv-x="676" 
d="M223 139h438v-139h-631v124l308 441l-79 56l83 120l203 -141z" />
    <glyph glyph-name="uni0541" unicode="&#x541;" horiz-adv-x="794" 
d="M249 162c0 -33 71 -41 103 -41h8c32 0 66 4 99 16c-43 29 -108 52 -152 52c-22 0 -58 -5 -58 -27zM759 359v-25c0 -81 -26 -157 -83 -219c12 -15 24 -31 33 -45l-98 -84c-19 25 -30 39 -41 50c-50 -25 -118 -46 -206 -46c-231 0 -260 138 -260 181c0 42 27 153 207 153
c94 0 188 -44 260 -105l8 13c17 29 28 63 28 101v31c0 114 -97 200 -210 200c-108 0 -200 -89 -214 -206l-148 37c29 179 177 307 361 307c204 0 363 -148 363 -343z" />
    <glyph glyph-name="uni0542" unicode="&#x542;" horiz-adv-x="751" 
d="M623 138h98v-138h-247v408c0 98 -58 155 -151 155c-95 0 -154 -65 -154 -176h-149c0 205 111 312 301 312c187 0 302 -111 302 -292v-269z" />
    <glyph glyph-name="uni0543" unicode="&#x543;" horiz-adv-x="706" 
d="M203 139h282l-163 255c-74 -63 -115 -158 -119 -255zM442 487l234 -362v-125h-631v119c0 132 99 308 198 399l-62 98l126 79l53 -82c71 50 130 82 212 122l84 -120c-73 -39 -157 -86 -214 -128z" />
    <glyph glyph-name="uni0544" unicode="&#x544;" horiz-adv-x="791" 
d="M771 687v-138h-98v-268c0 -182 -114 -293 -301 -293s-302 111 -302 293v406h149v-406c0 -97 60 -155 154 -155c93 0 151 57 151 155v406h247z" />
    <glyph glyph-name="uni0545" unicode="&#x545;" horiz-adv-x="645" 
d="M600 494c0 -59 -24 -103 -75 -133c81 -38 100 -115 100 -170c0 -88 -73 -203 -304 -203c-174 0 -270 88 -281 98l70 133c8 -10 80 -93 221 -93c107 0 138 54 138 93c0 50 -66 61 -112 61h-294v136h294c62 0 91 31 91 68c0 43 -37 77 -110 77c-76 0 -136 -47 -175 -81
l-65 133c11 9 108 86 243 86c147 0 259 -81 259 -205z" />
    <glyph glyph-name="uni0546" unicode="&#x546;" horiz-adv-x="736" 
d="M567 352h149v-71c0 -122 -60 -293 -303 -293c-255 0 -300 189 -300 293v268h-98v138h247v-406c0 -98 58 -155 154 -155c112 0 151 79 151 155v71z" />
    <glyph glyph-name="uni0547" unicode="&#x547;" horiz-adv-x="789" 
d="M610 332l149 -38c-30 -177 -178 -306 -361 -306c-204 0 -363 152 -363 348c0 190 139 332 322 352l39 68l320 -182l-73 -127c-43 25 -104 59 -148 83c-6 2 -46 22 -99 22c-114 0 -210 -98 -210 -216c0 -117 97 -210 213 -210c107 0 197 89 211 206z" />
    <glyph glyph-name="uni0548" unicode="&#x548;" horiz-adv-x="743" 
d="M70 -3v407c0 181 114 293 301 293s302 -112 302 -293v-407h-149v407c0 96 -60 155 -154 155c-93 0 -151 -58 -151 -155v-407h-149z" />
    <glyph glyph-name="uni0549" unicode="&#x549;" horiz-adv-x="790" 
d="M179 355l-149 39c31 176 179 305 361 305c205 0 364 -152 364 -351c0 -188 -139 -327 -323 -349l-39 -68l-319 182l72 127l144 -80c12 -6 54 -25 101 -25c116 0 213 98 213 216s-98 210 -213 210c-108 0 -198 -89 -212 -206z" />
    <glyph glyph-name="uni054A" unicode="&#x54a;" horiz-adv-x="814" 
d="M374 699c205 0 370 -139 370 -346v-353h-152v353c0 65 -30 157 -133 194v-318h-152v319c-101 -37 -133 -137 -139 -194l-148 40c15 100 112 305 354 305z" />
    <glyph glyph-name="uni054B" unicode="&#x54b;" horiz-adv-x="806" 
d="M520 149c72 31 105 124 105 204c0 117 -105 208 -221 208c-70 0 -132 -31 -171 -83c145 -41 293 -86 293 -269c0 -22 -2 -41 -6 -60zM766 351c0 -77 -23 -156 -71 -213h71v-138h-726v207h149v-69h196c5 17 7 32 7 48c0 61 -38 109 -86 124c-1 0 -176 55 -264 85
c29 178 177 304 361 304c205 0 363 -150 363 -348z" />
    <glyph glyph-name="uni054C" unicode="&#x54c;" horiz-adv-x="796" 
d="M771 291v-138h-98l-1 -153h-148v407c0 97 -58 154 -151 154c-94 0 -154 -58 -154 -154v-407h-149v407c0 181 115 292 302 292s301 -111 301 -292v-116h98z" />
    <glyph glyph-name="uni054D" unicode="&#x54d;" horiz-adv-x="743" 
d="M673 687v-406c0 -182 -114 -293 -301 -293s-302 111 -302 293v406h149v-406c0 -97 60 -155 154 -155c93 0 151 57 151 155v406h149z" />
    <glyph glyph-name="uni054E" unicode="&#x54e;" horiz-adv-x="751" 
d="M623 138h98v-138h-247v167c-43 -20 -95 -31 -152 -31c-183 0 -302 106 -302 293v78h149v-92c0 -85 64 -141 156 -141c89 0 149 52 149 155v258h149v-549z" />
    <glyph glyph-name="uni054F" unicode="&#x54f;" horiz-adv-x="580" 
d="M202 502c0 -53 65 -76 144 -102c93 -32 204 -69 204 -202c0 -131 -110 -210 -271 -210c-131 0 -259 77 -259 220v25h139c0 -89 66 -107 132 -107c63 0 98 25 98 63c0 50 -61 73 -130 97c-107 37 -220 77 -220 211c0 125 104 202 250 202c119 0 245 -50 245 -183v-24h-140
c0 56 -48 75 -85 75h-16c-59 0 -91 -26 -91 -65z" />
    <glyph glyph-name="uni0550" unicode="&#x550;" horiz-adv-x="693" 
d="M219 406v-407h-149v407c0 181 114 293 301 293s302 -119 302 -313h-149c0 109 -60 174 -154 174c-93 0 -151 -57 -151 -154z" />
    <glyph glyph-name="uni0551" unicode="&#x551;" horiz-adv-x="645" 
d="M333 423c41 0 71 31 71 71c0 41 -33 66 -71 66s-70 -25 -70 -66c0 -40 29 -71 70 -71zM555 511c0 -43 -19 -98 -56 -132c98 -32 126 -110 126 -177v-10c0 -73 -73 -204 -301 -204c-177 0 -273 88 -284 98l69 131c8 -9 81 -91 222 -91c107 0 138 58 138 98
c0 53 -66 64 -112 64h-294v136h75c-14 22 -26 53 -26 90c0 115 110 185 222 185c116 0 221 -75 221 -188z" />
    <glyph glyph-name="uni0552" unicode="&#x552;" horiz-adv-x="510" 
d="M239 507h236v-137h-236v-370h-149v687h149v-180z" />
    <glyph glyph-name="uni0553" unicode="&#x553;" horiz-adv-x="796" 
d="M186 343c0 -100 58 -173 138 -203v408c-80 -29 -138 -104 -138 -205zM473 548v-409c79 30 136 103 136 203c0 101 -57 177 -136 206zM398 699c205 0 363 -158 363 -354s-158 -357 -363 -357c-204 0 -363 161 -363 357c0 197 159 354 363 354z" />
    <glyph glyph-name="uni0554" unicode="&#x554;" horiz-adv-x="704" 
d="M368 559c-71 0 -130 -46 -130 -117c0 -72 59 -119 130 -119s128 47 128 119c0 71 -57 117 -128 117zM238 221v-86h431v-135h-649v135h67v297c0 155 126 267 280 267c159 0 281 -106 281 -257c0 -152 -122 -250 -281 -250c-47 0 -91 10 -129 29z" />
    <glyph glyph-name="uni0555" unicode="&#x555;" horiz-adv-x="796" 
d="M761 345c0 -196 -158 -357 -363 -357c-204 0 -363 161 -363 357c0 197 159 354 363 354c205 0 363 -158 363 -354zM186 343c0 -126 90 -217 211 -217c123 0 212 95 212 219c0 123 -89 216 -210 216c-123 0 -213 -93 -213 -218z" />
    <glyph glyph-name="uni0556" unicode="&#x556;" horiz-adv-x="792" 
d="M605 370h-136v-230c109 40 137 136 137 204c0 10 0 18 -1 26zM229 507h91v67c-34 -6 -78 -34 -91 -67zM469 693v-186h249c4 -5 39 -58 39 -171c0 -177 -139 -348 -363 -348c-197 0 -333 142 -361 306l142 37c9 -63 54 -158 145 -192v231h-285c9 180 144 330 344 330
c30 0 60 -3 90 -7z" />
    <glyph glyph-name="uni0561" unicode="&#x561;" horiz-adv-x="1018" 
d="M787 261v271h146v-532h-146v45c-38 -38 -92 -58 -153 -58c-81 0 -141 32 -173 89c-40 -60 -107 -89 -182 -89c-129 0 -204 81 -204 211v334h146v-305c0 -61 36 -99 95 -99c73 0 115 58 115 131v273h146v-307c0 -60 36 -97 94 -97c74 0 116 59 116 133z" />
    <glyph glyph-name="uni0562" unicode="&#x562;" horiz-adv-x="689" 
d="M619 120v-120h-383v-216h-146v748h146v-45c40 40 93 57 156 57c133 0 209 -80 209 -210v-148h-147v119c0 61 -36 99 -98 99c-69 0 -112 -50 -120 -115v-169h383z" />
    <glyph glyph-name="uni0563" unicode="&#x563;" horiz-adv-x="726" 
d="M313 120h131v152c0 83 -54 141 -131 141s-132 -59 -132 -141c0 -83 54 -152 132 -152zM444 489v43h146v-412h107v-120h-107v-216h-146v216h-153c-161 0 -256 120 -256 274c0 161 103 270 254 270c64 0 116 -20 155 -55z" />
    <glyph glyph-name="uni0564" unicode="&#x564;" horiz-adv-x="732" 
d="M596 120h106v-120h-106v-216h-147v521c0 61 -36 99 -98 99c-69 0 -112 -50 -120 -115v-289h-146v532h146v-45c40 40 93 57 156 57c133 0 209 -80 209 -210v-214z" />
    <glyph glyph-name="uni0565" unicode="&#x565;" horiz-adv-x="699" 
d="M614 413h-383v-186c0 -61 37 -99 99 -99c69 0 112 50 119 115v103h147v-346h-147v45c-39 -40 -92 -57 -154 -57c-134 0 -210 80 -210 210v566h146v-232h383v-119z" />
    <glyph glyph-name="uni0566" unicode="&#x566;" horiz-adv-x="726" 
d="M313 118c77 0 131 65 131 147c0 84 -54 149 -131 149s-132 -66 -132 -149c0 -82 54 -147 132 -147zM444 490v43h146v-622h107v-127h-253v258c-39 -35 -89 -53 -151 -53c-156 0 -258 119 -258 279s103 277 256 277c62 0 114 -20 153 -55z" />
    <glyph glyph-name="uni0567" unicode="&#x567;" horiz-adv-x="584" 
d="M494 0h-404v764h146v-232h328v-119h-328v-286h258v-127z" />
    <glyph glyph-name="uni0568" unicode="&#x568;" horiz-adv-x="689" 
d="M601 0h-147v305c0 61 -36 99 -98 99c-69 0 -112 -50 -120 -115v-379h383v-126h-529v748h146v-45c40 40 93 57 156 57c133 0 209 -80 209 -210v-334z" />
    <glyph glyph-name="uni0569" unicode="&#x569;" horiz-adv-x="718" 
d="M506 200h-98v-85h2c62 0 90 37 96 85zM639 319h44v-119h-45c-17 -108 -79 -206 -244 -206c-23 0 -55 3 -96 10v315h204c-17 58 -73 97 -136 97c-76 0 -130 -58 -130 -139v-493h-146v749h146v-42c39 35 91 54 152 54c135 0 232 -91 251 -226z" />
    <glyph glyph-name="uni056A" unicode="&#x56a;" horiz-adv-x="726" 
d="M444 260v153h-131c-78 0 -132 -66 -132 -148c0 -83 55 -146 134 -146c75 0 129 58 129 141zM291 532h153v232h146v-232h107v-119h-107v-152c0 -183 -133 -273 -301 -273c-151 0 -254 114 -254 273c0 156 96 271 256 271z" />
    <glyph glyph-name="uni056B" unicode="&#x56b;" horiz-adv-x="671" 
d="M236 -216h-146v980h146v-277c40 40 93 57 156 57c133 0 209 -80 209 -210v-334h-147v305c0 61 -36 99 -98 99c-69 0 -112 -50 -120 -115v-505z" />
    <glyph glyph-name="uni056C" unicode="&#x56c;" horiz-adv-x="459" 
d="M236 -90h193v-126h-339v748h146v-622z" />
    <glyph glyph-name="uni056D" unicode="&#x56d;" horiz-adv-x="960" 
d="M729 532h146v-532h-146v45c-39 -38 -93 -57 -156 -57c-125 0 -200 80 -200 210v215h-137v-629h-146v980h146v-232h283v-305c0 -61 36 -99 95 -99c72 0 115 59 115 133v271z" />
    <glyph glyph-name="uni056E" unicode="&#x56e;" horiz-adv-x="623" 
d="M312 117c76 0 130 56 130 140c0 34 -9 71 -25 97l-41 59h-64c-77 0 -131 -73 -131 -156c0 -84 54 -140 131 -140zM290 531l-164 217l106 78l220 -294h136v-119h-51c31 -45 51 -101 51 -164c0 -151 -112 -261 -276 -261s-277 110 -277 270c0 153 103 264 255 273z" />
    <glyph glyph-name="uni056F" unicode="&#x56f;" horiz-adv-x="686" 
d="M449 532h147v-748h-147v261c-39 -40 -92 -57 -155 -57c-133 0 -209 80 -209 210v566h146v-537c0 -61 37 -99 99 -99c69 0 112 50 119 115v289z" />
    <glyph glyph-name="uni0570" unicode="&#x570;" horiz-adv-x="671" 
d="M236 0h-146v764h146v-277c40 40 93 57 156 57c133 0 209 -80 209 -210v-334h-147v305c0 61 -36 99 -98 99c-69 0 -112 -50 -120 -115v-289z" />
    <glyph glyph-name="uni0571" unicode="&#x571;" horiz-adv-x="659" 
d="M310 116h3c77 0 130 67 130 148c0 78 -49 142 -131 142c-44 0 -81 -20 -105 -53l-1 -2c-18 -26 -26 -57 -26 -86c0 -74 54 -149 130 -149zM275 590l-116 65l165 135l109 -61l-74 -60l120 -67l-92 -81c150 -36 202 -170 202 -253v-268h-146v40c-36 -36 -85 -53 -145 -53
c-155 0 -263 123 -263 269c0 123 74 190 148 254c30 27 61 54 92 80z" />
    <glyph glyph-name="uni0572" unicode="&#x572;" horiz-adv-x="732" 
d="M596 -90h106v-126h-253v521c0 61 -36 99 -98 99c-69 0 -112 -50 -120 -115v-289h-146v532h146v-45c40 40 93 57 156 57c133 0 209 -80 209 -210v-424z" />
    <glyph glyph-name="uni0573" unicode="&#x573;" horiz-adv-x="642" 
d="M185 127h248l-165 269c-54 -82 -83 -169 -83 -269zM360 510l244 -397v-113h-554v107c0 132 45 262 113 354l36 49l-52 86l115 74l32 -52c63 65 165 158 245 223l78 -100c-75 -61 -190 -161 -257 -231z" />
    <glyph glyph-name="uni0574" unicode="&#x574;" horiz-adv-x="761" 
d="M479 764h253v-127h-107v-637h-146v40c-39 -35 -90 -53 -153 -53c-154 0 -256 111 -256 273v271h146v-275c0 -82 54 -140 132 -140c77 0 131 58 131 140v508z" />
    <glyph glyph-name="uni0575" unicode="&#x575;" horiz-adv-x="419" 
d="M334 532v-563c0 -130 -91 -190 -174 -190c-48 0 -116 24 -149 94l81 101c20 -44 44 -62 61 -62c19 0 35 14 35 47v573h146z" />
    <glyph glyph-name="uni0576" unicode="&#x576;" horiz-adv-x="732" 
d="M136 637h-106v127h253v-537c0 -61 37 -99 98 -99c69 0 113 50 120 115v289h146v-532h-146v45c-40 -40 -93 -57 -156 -57c-133 0 -209 80 -209 210v439z" />
    <glyph glyph-name="uni0577" unicode="&#x577;" horiz-adv-x="588" 
d="M230 -64c-14 -9 -10 -26 12 -26h305v-126h-376c-90 0 -131 61 -131 116c0 43 25 77 55 97l230 150c58 38 84 87 83 135c0 74 -51 131 -127 131c-45 0 -96 -23 -143 -84l-108 82c66 88 158 133 268 133c114 0 255 -72 255 -263c0 -121 -58 -172 -145 -230
c-75 -49 -102 -65 -178 -115z" />
    <glyph glyph-name="uni0578" unicode="&#x578;" horiz-adv-x="657" 
d="M85 0v532h146v-45c39 38 93 57 156 57c125 0 200 -80 200 -210v-334h-146v305c0 61 -36 99 -95 99c-69 0 -115 -59 -115 -133v-271h-146z" />
    <glyph glyph-name="uni0579" unicode="&#x579;" horiz-adv-x="572" 
d="M245 -90h292v-126h-376c-92 0 -132 56 -132 116c0 48 24 77 62 101l237 147c5 3 7 7 7 11s-4 9 -13 11c-151 40 -220 156 -220 259c0 37 9 79 25 121l135 -50c-10 -33 -14 -58 -14 -76c0 -70 46 -121 105 -132l76 -14c51 -9 80 -53 80 -99c0 -35 -15 -69 -66 -101
l-197 -127c-19 -13 -26 -22 -26 -28c0 -9 14 -12 25 -13z" />
    <glyph glyph-name="uni057A" unicode="&#x57a;" horiz-adv-x="1018" 
d="M782 261v271h146v-748h-146v261c-38 -38 -93 -57 -156 -57c-78 0 -138 32 -171 89c-41 -62 -104 -89 -185 -89c-125 0 -200 80 -200 210v334h146v-305c0 -61 36 -99 95 -99c73 0 115 59 115 132v272h146v-306c0 -60 36 -98 95 -98c73 0 115 59 115 133z" />
    <glyph glyph-name="uni057B" unicode="&#x57b;" horiz-adv-x="597" 
d="M283 411c-43 0 -99 -19 -99 -60c0 -26 23 -53 47 -77c44 -43 64 -77 64 -130c0 -10 -1 -21 -2 -32l38 23c48 29 85 77 85 137c0 76 -57 139 -133 139zM239 -65c-6 -4 -11 -10 -11 -15s5 -10 17 -10h307v-126h-376c-91 0 -130 58 -130 117c0 27 8 63 47 88l44 30
c17 11 47 42 47 71c0 26 -22 63 -65 104c-54 52 -84 106 -84 156c0 26 9 53 25 75c9 13 81 119 235 119c180 0 267 -148 267 -271c0 -106 -60 -180 -148 -234c-61 -37 -118 -68 -175 -104z" />
    <glyph glyph-name="uni057C" unicode="&#x57c;" horiz-adv-x="732" 
d="M596 120h106v-120h-253v305c0 61 -36 99 -98 99c-69 0 -112 -50 -120 -115v-289h-146v532h146v-45c40 40 93 57 156 57c133 0 209 -80 209 -210v-214z" />
    <glyph glyph-name="uni057D" unicode="&#x57d;" horiz-adv-x="662" 
d="M577 532v-532h-146v45c-38 -38 -93 -57 -156 -57c-125 0 -200 80 -200 210v334h146v-305c0 -61 36 -99 95 -99c73 0 115 59 115 133v271h146z" />
    <glyph glyph-name="uni057E" unicode="&#x57e;" horiz-adv-x="717" 
d="M581 -90h106v-126h-253v261c-39 -40 -92 -57 -155 -57c-133 0 -209 80 -209 210v334h146v-305c0 -61 37 -99 99 -99c69 0 112 50 119 115v521h147v-854z" />
    <glyph glyph-name="uni057F" unicode="&#x57f;" horiz-adv-x="998" 
d="M728 544c125 0 200 -80 200 -210v-334h-146v305c0 61 -36 99 -95 99c-72 0 -115 -59 -115 -133v-271h-146v45c-38 -38 -93 -57 -156 -57c-125 0 -200 80 -200 210v334h146v-305c0 -61 36 -99 95 -99c73 0 115 59 115 133v271h146v-45c39 38 93 57 156 57z" />
    <glyph glyph-name="uni0580" unicode="&#x580;" horiz-adv-x="662" 
d="M90 -216v748h146v-45c39 38 93 57 156 57c125 0 200 -80 200 -210v-334h-146v305c0 61 -36 99 -95 99c-72 0 -115 -59 -115 -133v-487h-146z" />
    <glyph glyph-name="uni0581" unicode="&#x581;" horiz-adv-x="674" 
d="M313 117c75 0 131 60 131 139v17c0 80 -56 140 -131 140c-77 0 -132 -66 -132 -149c0 -82 54 -147 132 -147zM444 489v43h145v-501c0 -154 -109 -250 -273 -250c-83 0 -160 29 -233 78l66 113c54 -41 105 -63 158 -63c84 0 137 46 137 119v13c-39 -35 -89 -53 -151 -53
c-156 0 -258 119 -258 279s103 277 256 277c62 0 114 -20 153 -55z" />
    <glyph glyph-name="uni0582" unicode="&#x582;" horiz-adv-x="454" 
d="M231 127h193v-127h-339v532h146v-405z" />
    <glyph glyph-name="uni0583" unicode="&#x583;" horiz-adv-x="998" 
d="M728 544c125 0 200 -80 200 -210v-334h-146v305c0 61 -36 99 -95 99c-72 0 -115 -59 -115 -133v-487h-146v261c-38 -38 -93 -57 -156 -57c-125 0 -200 80 -200 210v334h146v-305c0 -61 36 -99 95 -99c73 0 115 59 115 133v503h146v-277c39 38 93 57 156 57z" />
    <glyph glyph-name="uni0584" unicode="&#x584;" horiz-adv-x="725" 
d="M396 413c-79 0 -133 -54 -133 -129c0 -72 54 -127 137 -127c72 0 125 50 125 124c0 75 -54 132 -129 132zM263 91v-119h427v-120h-427v-68h-147v68h-106v120h106v560h147v-43c38 35 90 55 152 55c153 0 257 -107 257 -257c0 -151 -103 -249 -258 -249
c-62 0 -113 18 -151 53z" />
    <glyph glyph-name="uni0587" unicode="&#x587;" horiz-adv-x="808" 
d="M788 128v-127h-339v45c-39 -41 -92 -58 -155 -58c-133 0 -209 81 -209 211v566h146v-537c0 -61 37 -99 99 -99c69 0 112 50 119 115v289h147v-405h192z" />
    <glyph glyph-name="uni0585" unicode="&#x585;" horiz-adv-x="624" 
d="M588 265c0 -159 -112 -277 -276 -277s-277 118 -277 277c0 161 113 279 277 279s276 -118 276 -279zM181 264c0 -84 54 -147 131 -147c76 0 130 63 130 147c0 83 -54 149 -130 149c-77 0 -131 -66 -131 -149z" />
    <glyph glyph-name="uni0586" unicode="&#x586;" horiz-adv-x="650" 
d="M476 413h-89v-265c69 23 98 110 98 191c0 26 -3 51 -9 74zM171 532h69v101c-38 -10 -69 -37 -69 -101zM387 755v-223h187c28 -55 41 -124 41 -168v-23c0 -136 -51 -274 -228 -324v-233h-147v216h-203v132l203 1v280h-200c-3 29 -5 52 -5 68c0 234 170 284 278 284
c22 0 48 -3 74 -10z" />
    <glyph glyph-name="uni055B" unicode="&#x55b;" horiz-adv-x="327" 
d="M161 647h-141l131 183l156 -66z" />
    <glyph glyph-name="uni055D" unicode="&#x55d;" horiz-adv-x="327" 
d="M307 647h-142l-145 117l156 66z" />
    <glyph glyph-name="uni055C" unicode="&#x55c;" horiz-adv-x="350" 
d="M208 908h105c22 -61 20 -156 -61 -171c-85 -16 -137 -11 -110 -90h-103c-46 94 6 174 117 184c59 5 65 41 52 77z" />
    <glyph glyph-name="uni055E" unicode="&#x55e;" horiz-adv-x="230" 
d="M138 678l-36 56c24 0 37 14 36 26c0 8 -6 17 -19 17c-27 0 -40 -16 -40 -34c0 -29 20 -70 45 -96h-104c-28 42 -39 76 -39 103c0 70 66 116 131 116h4c72 0 112 -56 112 -105c0 -37 -18 -76 -90 -83z" />
    <glyph glyph-name="uni0589" unicode="&#x589;" horiz-adv-x="243" 
d="M124 154c45 0 79 -33 79 -80c0 -48 -34 -82 -79 -82c-44 0 -78 34 -78 82c0 47 34 80 78 80zM124 428c45 0 79 -33 79 -80s-34 -82 -79 -82c-44 0 -78 35 -78 82s34 80 78 80z" />
    <glyph glyph-name="uniFB14" unicode="&#xfb14;" horiz-adv-x="1398" 
d="M1313 532v-119h-383v-186c0 -61 37 -99 99 -99c69 0 112 50 119 115v103h147v-346h-147v45c-39 -40 -92 -57 -154 -57c-134 0 -210 80 -210 210v439h-159v-637h-146v40c-39 -35 -90 -53 -153 -53c-154 0 -256 111 -256 273v271h146v-275c0 -80 55 -140 132 -140
s131 58 131 140v508h451v-232h383z" />
    <glyph glyph-name="uni0559" unicode="&#x559;" horiz-adv-x="178" 
 />
    <glyph glyph-name="uni055A" unicode="&#x55a;" horiz-adv-x="178" 
 />
    <glyph glyph-name="uni055F" unicode="&#x55f;" horiz-adv-x="432" 
 />
    <glyph glyph-name="uni058A" unicode="&#x58a;" horiz-adv-x="336" 
 />
    <glyph glyph-name="uni2116" unicode="&#x2116;" horiz-adv-x="1317" 
d="M1027 404c-77 0 -130 -56 -130 -139s53 -140 130 -140c76 0 130 57 130 140s-54 139 -130 139zM525 687h146v-687h-136l-316 425v-425h-148v687h137l317 -426v426zM1027 536c164 0 276 -109 276 -270c0 -160 -112 -270 -276 -270s-277 110 -277 270
c0 161 113 270 277 270z" />
    <glyph glyph-name="uni0002" horiz-adv-x="500" 
 />
    <glyph glyph-name="uni0009" unicode="&#x9;" horiz-adv-x="80" 
 />
    <glyph glyph-name="uni000A" unicode="&#xa;" horiz-adv-x="250" 
 />
    <glyph glyph-name="uni2031" unicode="&#x2031;" horiz-adv-x="664" 
 />
    <glyph glyph-name="A" unicode="A" horiz-adv-x="667" 
d="M99 0h-101l275 716h103l293 -716h-108l-84 217h-299zM284 504l-79 -210h243l-75 198c-23 61 -40 110 -51 149c-9 -46 -21 -92 -38 -137z" />
    <glyph glyph-name="B" unicode="B" horiz-adv-x="667" 
d="M346 0h-273v716h269c55 0 99 -7 132 -22c66 -29 105 -96 105 -161c0 -61 -33 -119 -100 -152c87 -25 135 -90 135 -173c0 -68 -33 -129 -74 -160c-41 -32 -102 -48 -194 -48zM168 631v-216h155c42 0 72 3 90 8c48 15 73 48 73 99c0 23 -6 44 -17 62s-28 30 -49 37
s-58 10 -109 10h-143zM168 331v-246h178c31 0 52 1 65 3c60 11 105 47 105 120c0 27 -7 50 -20 70c-28 39 -71 53 -162 53h-166z" />
    <glyph glyph-name="C" unicode="C" horiz-adv-x="722" 
d="M588 251l95 -24c-40 -156 -148 -239 -297 -239c-77 0 -139 16 -187 47c-49 31 -86 77 -111 137c-25 59 -38 123 -38 191c0 75 14 140 43 196c56 111 168 169 295 169c143 0 245 -76 282 -208l-93 -22c-33 104 -95 149 -191 149c-55 0 -101 -13 -138 -39
c-37 -27 -63 -62 -78 -106c-15 -45 -22 -91 -22 -138c0 -61 9 -114 27 -159c35 -92 116 -136 203 -136c107 0 183 62 210 182z" />
    <glyph glyph-name="D" unicode="D" horiz-adv-x="722" 
d="M335 0h-258v716h247c55 0 98 -3 127 -10c41 -10 76 -27 105 -52c76 -64 113 -164 113 -292c0 -109 -28 -194 -68 -249c-58 -80 -132 -113 -266 -113zM172 631v-546h153c95 0 143 18 175 50c45 45 71 120 71 228c0 75 -12 133 -36 173c-25 40 -55 67 -90 81
c-25 9 -66 14 -123 14h-150z" />
    <glyph glyph-name="E" unicode="E" horiz-adv-x="667" 
d="M613 0h-534v716h518v-85h-423v-219h396v-84h-396v-243h439v-85z" />
    <glyph glyph-name="F" unicode="F" horiz-adv-x="611" 
d="M177 0h-95v716h483v-85h-388v-221h336v-85h-336v-325z" />
    <glyph glyph-name="G" unicode="G" horiz-adv-x="778" 
d="M623 281h-211v84h303v-265c-92 -75 -192 -112 -296 -112c-70 0 -134 15 -191 45c-116 60 -175 181 -175 322c0 69 15 134 44 195c59 120 172 178 315 178c51 0 98 -8 140 -25c84 -33 128 -91 153 -187l-86 -24c-11 37 -24 65 -40 86c-32 41 -95 69 -167 69
c-132 0 -203 -67 -234 -143c-18 -44 -27 -92 -27 -144c0 -63 11 -116 33 -159c44 -86 135 -128 230 -128c41 0 81 8 120 24s68 33 89 51v133z" />
    <glyph glyph-name="H" unicode="H" horiz-adv-x="722" 
d="M175 0h-95v716h95v-294h372v294h95v-716h-95v337h-372v-337z" />
    <glyph glyph-name="I" unicode="I" horiz-adv-x="278" 
d="M188 0h-95v716h95v-716z" />
    <glyph glyph-name="J" unicode="J" horiz-adv-x="500" 
d="M29 203l85 12c5 -109 42 -143 107 -143c23 0 44 6 61 17s29 25 36 44s10 49 10 90v493h94v-488c0 -60 -7 -106 -21 -139c-29 -65 -95 -101 -180 -101c-125 0 -195 72 -192 215z" />
    <glyph glyph-name="K" unicode="K" horiz-adv-x="667" 
d="M168 0h-95v716h95v-355l355 355h129l-300 -290l313 -426h-125l-255 362l-117 -114v-248z" />
    <glyph glyph-name="L" unicode="L" 
d="M521 0h-448v716h95v-631h353v-85z" />
    <glyph glyph-name="M" unicode="M" horiz-adv-x="833" 
d="M166 0h-92v716h143l169 -507c16 -47 27 -83 34 -106c9 26 22 64 39 115l171 498h127v-716h-91v599l-208 -599h-85l-207 609v-609z" />
    <glyph glyph-name="N" unicode="N" horiz-adv-x="722" 
d="M167 0h-91v716h97l376 -562v562h91v-716h-97l-376 563v-563z" />
    <glyph glyph-name="O" unicode="O" horiz-adv-x="778" 
d="M48 349c0 119 32 212 96 279s146 101 247 101c199 3 347 -159 342 -372c0 -73 -15 -138 -44 -195s-71 -101 -124 -130c-54 -29 -112 -44 -174 -44c-67 0 -128 16 -181 49c-53 32 -94 76 -121 133c-27 56 -41 116 -41 179zM146 347c0 -86 23 -154 70 -203
c46 -50 104 -75 174 -75c71 0 130 25 176 75s69 121 69 213c5 175 -101 291 -243 290c-67 0 -125 -23 -173 -69c-49 -46 -73 -123 -73 -231z" />
    <glyph glyph-name="P" unicode="P" horiz-adv-x="667" 
d="M172 0h-95v716h270c48 0 84 -2 109 -7c35 -6 65 -17 89 -33c47 -33 79 -96 79 -167c0 -61 -19 -112 -58 -154c-39 -43 -109 -64 -210 -64h-184v-291zM172 631v-255h185c123 0 169 47 169 130c0 60 -32 106 -83 119c-16 4 -45 6 -88 6h-183z" />
    <glyph glyph-name="Q" unicode="Q" horiz-adv-x="778" 
d="M620 77c44 -31 84 -53 121 -67l-28 -66c-51 19 -102 48 -153 88c-53 -29 -112 -44 -176 -44c-195 -4 -347 158 -341 370c0 71 14 135 43 193c57 116 169 178 300 178c199 3 347 -158 342 -371c0 -117 -36 -212 -108 -281zM388 129l23 69c55 -15 100 -38 135 -69
c56 51 84 128 84 229c4 173 -100 290 -244 289c-71 0 -129 -24 -175 -72c-47 -49 -70 -121 -70 -217c0 -93 23 -165 69 -214c46 -50 105 -75 176 -75c34 0 66 6 96 19c-29 19 -61 33 -94 41z" />
    <glyph glyph-name="R" unicode="R" horiz-adv-x="722" 
d="M173 0h-94v716h317c64 0 113 -6 146 -19c66 -26 109 -97 109 -176c0 -103 -65 -176 -202 -195c25 -12 44 -24 57 -36c28 -25 54 -57 79 -95l125 -195h-120l-94 149c-86 131 -113 153 -160 166c-11 2 -28 3 -53 3h-110v-318zM173 637v-237h204c128 -4 172 48 176 121
c0 67 -46 116 -153 116h-227z" />
    <glyph glyph-name="S" unicode="S" horiz-adv-x="667" 
d="M45 230l89 8c5 -36 15 -65 30 -88c31 -46 101 -77 182 -77c110 -2 180 55 177 121c0 45 -24 78 -83 101c-19 8 -62 20 -128 36c-66 15 -112 30 -138 44c-68 36 -102 89 -102 156c-5 110 106 202 252 197c160 4 267 -86 269 -214l-91 -7c-9 91 -63 138 -174 138
c-115 0 -164 -48 -164 -108c0 -25 9 -46 27 -63c19 -17 67 -34 144 -51s129 -33 158 -46c83 -39 122 -98 122 -175c3 -115 -111 -218 -265 -214c-65 0 -119 9 -162 28c-88 37 -140 118 -143 214z" />
    <glyph glyph-name="T" unicode="T" horiz-adv-x="611" 
d="M354 0h-95v631h-236v85h568v-85h-237v-631z" />
    <glyph glyph-name="U" unicode="U" horiz-adv-x="722" 
d="M547 303v413h95v-414c0 -72 -8 -129 -24 -171c-33 -85 -119 -143 -256 -143c-67 0 -122 11 -165 35c-85 46 -118 128 -118 279v414h94v-413c0 -62 6 -108 18 -137c23 -60 82 -93 163 -93c69 0 119 16 149 48c29 31 44 92 44 182z" />
    <glyph glyph-name="V" unicode="V" horiz-adv-x="667" 
d="M379 0h-97l-278 716h103l186 -520c15 -42 27 -81 38 -117c11 39 23 78 38 117l194 520h96z" />
    <glyph glyph-name="W" unicode="W" horiz-adv-x="944" 
d="M299 0h-97l-190 716h97l109 -469c12 -49 22 -98 31 -147c18 77 29 121 32 132l136 484h114l103 -362c25 -90 44 -175 56 -254c9 45 20 97 35 156l112 460h96l-197 -716h-91l-151 545c-13 46 -20 74 -22 84c-8 -33 -15 -61 -21 -84z" />
    <glyph glyph-name="X" unicode="X" horiz-adv-x="667" 
d="M118 0h-114l277 373l-244 343h113l130 -184c27 -38 46 -67 57 -88c16 26 35 53 57 82l144 190h103l-251 -338l271 -378h-117l-181 255c-10 15 -20 31 -31 48c-16 -26 -27 -44 -34 -53z" />
    <glyph glyph-name="Y" unicode="Y" horiz-adv-x="667" 
d="M374 0h-95v303l-276 413h115l141 -216c26 -40 50 -80 73 -121c21 37 47 79 78 126l139 211h110l-285 -413v-303z" />
    <glyph glyph-name="Z" unicode="Z" horiz-adv-x="611" 
d="M586 0h-566v88l367 458c26 33 51 61 74 85h-399v85h512v-85l-402 -496l-43 -50h457v-85z" />
    <glyph glyph-name="a" unicode="a" 
d="M404 64c-64 -55 -122 -76 -191 -76c-113 0 -177 62 -177 149c0 80 58 130 126 149c17 5 43 9 78 13c71 9 124 19 157 30c1 12 1 20 1 23c0 36 -8 61 -25 76c-23 20 -56 30 -100 30c-84 0 -117 -26 -136 -99l-86 12c20 109 96 157 234 159c137 -3 182 -45 196 -114
c3 -15 5 -42 5 -81v-118c0 -81 2 -133 6 -154c3 -22 11 -43 22 -63h-92c-9 18 -15 39 -18 64zM397 228v32c-32 -13 -80 -24 -144 -33c-36 -5 -61 -11 -76 -17c-30 -13 -47 -40 -47 -71c0 -47 36 -82 104 -82s124 32 149 83c9 20 14 49 14 88z" />
    <glyph glyph-name="b" unicode="b" 
d="M147 65v-65h-82v716h88v-256c37 47 85 70 142 70c64 0 125 -26 162 -73c36 -47 58 -115 58 -190c0 -89 -22 -157 -66 -206s-97 -73 -158 -73s-109 26 -144 77zM146 263c0 -62 8 -107 25 -135c28 -45 66 -67 113 -67c38 0 71 17 99 50s42 83 42 149c0 67 -13 117 -40 150
c-27 32 -59 48 -97 48c-39 0 -72 -17 -100 -50s-42 -82 -42 -145z" />
    <glyph glyph-name="c" unicode="c" horiz-adv-x="500" 
d="M404 190l87 -11c-19 -120 -103 -191 -216 -191c-71 0 -128 23 -171 70c-43 46 -65 112 -65 199c0 56 9 105 28 147c37 84 120 126 208 126c113 0 187 -59 207 -164l-85 -13c-16 69 -59 105 -118 105c-89 0 -150 -61 -150 -198c0 -140 60 -199 145 -199
c69 0 118 41 130 129z" />
    <glyph glyph-name="d" unicode="d" 
d="M484 0h-82v65c-33 -51 -81 -77 -145 -77c-125 -1 -227 112 -223 271c-5 156 91 276 219 271c63 0 113 -28 144 -71v257h87v-716zM125 259c0 -67 14 -116 42 -149s61 -49 99 -49s71 16 98 47s40 79 40 144c0 71 -14 123 -41 156s-61 50 -101 50c-79 0 -137 -62 -137 -199z
" />
    <glyph glyph-name="e" unicode="e" 
d="M421 167l91 -11c-29 -107 -108 -168 -228 -168c-76 0 -136 23 -180 70c-45 47 -67 112 -67 197c0 87 22 155 67 203s103 72 175 72c69 0 126 -23 170 -70s66 -114 66 -200c0 -5 0 -13 -1 -23h-387c7 -115 70 -176 157 -176c65 0 110 31 137 106zM132 309h290
c-4 44 -15 77 -33 98c-28 34 -64 51 -109 51c-81 0 -141 -58 -148 -149z" />
    <glyph glyph-name="f" unicode="f" horiz-adv-x="278" 
d="M174 0h-87v450h-78v69h78v55c0 35 3 60 9 77c17 47 58 77 135 77c25 0 52 -3 82 -9l-14 -76c-18 3 -35 5 -51 5c-53 0 -74 -19 -74 -82v-47h101v-69h-101v-450z" />
    <glyph glyph-name="g" unicode="g" 
d="M50 -43l85 -13c4 -26 14 -45 30 -57c22 -17 52 -25 89 -25c81 0 124 34 140 93c4 18 6 56 6 113c-39 -45 -87 -68 -144 -68c-71 0 -126 26 -165 77s-59 113 -59 185c-2 149 87 273 225 268c61 0 112 -25 151 -74v63h81v-449c0 -81 -8 -138 -24 -172
c-33 -67 -106 -108 -210 -108c-62 0 -112 14 -150 41c-38 28 -56 70 -55 126zM123 269c0 -136 61 -196 142 -196c40 0 74 16 101 47s41 79 41 146c0 63 -14 111 -42 144c-28 32 -62 48 -102 48c-39 0 -72 -16 -99 -48s-41 -79 -41 -141z" />
    <glyph glyph-name="h" unicode="h" 
d="M154 0h-88v716h88v-257c41 47 92 71 155 71c39 0 72 -7 101 -22c56 -30 78 -78 78 -179v-329h-88v329c0 88 -40 126 -109 126c-26 0 -50 -7 -73 -20c-46 -28 -64 -70 -64 -151v-284z" />
    <glyph glyph-name="i" unicode="i" horiz-adv-x="222" 
d="M154 615h-88v101h88v-101zM154 0h-88v519h88v-519z" />
    <glyph glyph-name="j" unicode="j" horiz-adv-x="222" 
d="M153 614h-88v102h88v-102zM-46 -201l17 74c17 -4 31 -6 41 -6c18 0 31 6 40 17c9 12 13 42 13 90v545h88v-547c0 -64 -8 -109 -25 -134c-21 -32 -56 -48 -105 -48c-24 0 -47 3 -69 9z" />
    <glyph glyph-name="k" unicode="k" horiz-adv-x="500" 
d="M154 0h-88v716h88v-408l208 211h114l-198 -193l218 -326h-108l-172 265l-62 -59v-206z" />
    <glyph glyph-name="l" unicode="l" horiz-adv-x="222" 
d="M152 0h-88v716h88v-716z" />
    <glyph glyph-name="m" unicode="m" horiz-adv-x="833" 
d="M154 0h-88v519h79v-73c32 51 88 84 157 84c76 0 126 -34 146 -90c41 60 95 90 160 90c104 0 161 -55 161 -174v-356h-88v327c0 35 -3 60 -8 76c-12 31 -44 51 -84 51c-73 0 -127 -46 -127 -153v-301h-88v337c0 79 -27 117 -92 117c-25 0 -47 -6 -68 -19
c-42 -26 -60 -71 -60 -166v-269z" />
    <glyph glyph-name="n" unicode="n" 
d="M154 0h-88v519h79v-74c38 57 93 85 165 85c31 0 60 -5 87 -16c52 -22 76 -59 85 -110c3 -16 5 -44 5 -85v-319h-88v315c0 36 -3 63 -10 81c-13 35 -50 58 -97 58c-38 0 -70 -12 -97 -35c-27 -24 -41 -69 -41 -136v-283z" />
    <glyph glyph-name="o" unicode="o" 
d="M33 259c0 96 27 167 80 214c45 38 99 57 163 57c71 0 130 -23 175 -70s68 -111 68 -193c0 -67 -10 -119 -30 -157c-40 -77 -122 -122 -213 -122c-72 0 -130 23 -175 70s-68 114 -68 201zM124 259c0 -132 64 -198 152 -198s153 65 153 201c0 64 -15 113 -44 146
s-66 50 -109 50c-88 0 -152 -66 -152 -199z" />
    <glyph glyph-name="p" unicode="p" 
d="M154 -199h-88v718h80v-68c37 53 83 79 150 79c135 5 222 -118 220 -267c0 -53 -9 -100 -28 -143c-38 -85 -118 -132 -198 -132c-59 0 -107 27 -136 66v-253zM146 256c0 -67 14 -116 41 -147c27 -32 59 -48 97 -48c39 0 73 17 101 50c27 33 41 84 41 153
c0 66 -13 115 -40 148s-60 49 -98 49c-37 0 -70 -17 -99 -52s-43 -86 -43 -153z" />
    <glyph glyph-name="q" unicode="q" 
d="M484 -199h-87v254c-28 -39 -81 -67 -136 -67c-61 0 -114 25 -159 74s-67 117 -67 202c-4 158 94 270 219 266c64 0 114 -27 151 -81v70h79v-718zM126 261c0 -67 14 -117 42 -150s61 -50 100 -50c37 0 70 16 97 48c27 31 40 79 40 144c0 69 -14 121 -42 156
c-29 35 -62 52 -101 52c-38 0 -70 -16 -96 -48c-27 -33 -40 -83 -40 -152z" />
    <glyph glyph-name="r" unicode="r" horiz-adv-x="333" 
d="M153 0h-88v519h79v-79c40 73 72 90 112 90c30 0 60 -9 91 -28l-31 -82c-21 13 -43 20 -64 20c-39 0 -72 -25 -84 -66c-10 -31 -15 -65 -15 -102v-272z" />
    <glyph glyph-name="s" unicode="s" horiz-adv-x="500" 
d="M31 155l87 14c9 -71 54 -108 134 -108c81 0 119 38 119 82c0 20 -9 36 -26 47c-12 8 -42 18 -90 30c-64 16 -108 30 -133 42c-50 24 -77 68 -77 119c0 47 23 88 60 113c27 20 78 36 131 36c41 0 77 -6 108 -17c62 -24 87 -61 98 -128l-86 -12c-8 53 -45 85 -113 85
c-81 0 -113 -31 -113 -67c0 -23 14 -42 45 -54c9 -3 34 -11 77 -22c63 -17 106 -30 131 -41c48 -21 78 -62 78 -122c2 -88 -85 -167 -209 -164c-135 0 -202 56 -221 167z" />
    <glyph glyph-name="t" unicode="t" horiz-adv-x="278" 
d="M258 79l13 -78c-25 -5 -48 -8 -67 -8c-32 0 -57 5 -74 15s-30 23 -37 40s-11 51 -11 104v298h-64v69h64v128l87 53v-181h89v-69h-89v-303c0 -25 2 -41 5 -48c7 -14 20 -24 45 -24c10 0 23 1 39 4z" />
    <glyph glyph-name="u" unicode="u" 
d="M484 0h-78v76c-41 -59 -96 -88 -165 -88c-31 0 -59 6 -85 18c-53 23 -76 58 -87 109c-3 17 -5 45 -5 82v322h88v-288c0 -46 2 -77 5 -93c12 -45 49 -74 102 -74c26 0 51 7 74 21c47 27 64 67 64 156v278h87v-519z" />
    <glyph glyph-name="v" unicode="v" horiz-adv-x="500" 
d="M292 0h-82l-197 519h93l111 -311c12 -33 23 -68 33 -104c8 27 19 60 33 98l115 317h90z" />
    <glyph glyph-name="w" unicode="w" horiz-adv-x="722" 
d="M253 0h-91l-159 519h91l113 -411c1 5 10 41 27 107l82 304h91l103 -400l119 400h85l-162 -519h-91l-83 311l-20 88z" />
    <glyph glyph-name="x" unicode="x" horiz-adv-x="500" 
d="M114 0h-107l190 270l-175 249h109l80 -122c15 -23 27 -43 36 -58c15 21 28 40 40 57l87 123h105l-179 -245l193 -274h-108l-135 205z" />
    <glyph glyph-name="y" unicode="y" horiz-adv-x="500" 
d="M62 -200l-10 83c19 -5 36 -8 51 -8c39 0 60 13 75 37c6 9 15 30 27 65c2 5 5 13 8 22l-197 520h95l108 -301c14 -38 26 -78 37 -120c11 41 23 80 37 118l110 303h88l-197 -528c-21 -57 -38 -96 -49 -118c-32 -57 -70 -83 -126 -83c-17 0 -36 3 -57 10z" />
    <glyph glyph-name="z" unicode="z" horiz-adv-x="500" 
d="M479 0h-459v71l330 379c-37 -2 -70 -3 -99 -3h-212v72h424v-59l-281 -329l-54 -60c39 3 76 5 111 5h240v-76z" />
  </font>
</defs>
</svg>
